# xmcd
#
# Track frame offsets: 
#        151
#        13511
#        29621
#        40778
#        54088
#        86743
#
# Disc length: 1616 seconds
#
# Revision: 0
# Processed by: cddbd v1.5.2PL0 Copyright (c) Steve Scherf et al.
# Submitted via: ExactAudioCopy v0.95a5
#
DISCID=3e064e06
DTITLE=伊藤佳代 Ito Kayo - 金刚心 Vajrasattva
DYEAR=2004
DGENRE=Acid Jazz
TTITLE0=亲爱的，不要怕 Dear,don t be afraid
TTITLE1=无坚不摧 Invincibility
TTITLE2=静心 Tranquility
TTITLE3=无所惧 Fearlessness
TTITLE4=安全所在 Freedom From Harm
TTITLE5=忏悔 Compunction
EXTD=
EXTT0=
EXTT1=
EXTT2=
EXTT3=
EXTT4=
EXTT5=
PLAYORDER=
